<svg class="diagram-root" style="background: #f5f6f6" xmlns="http://www.w3.org/2000/svg" xmlns:xlink="http://www.w3.org/1999/xlink"><style>.diagram-root { font-family: "Helvetica Neue", sans-serif; font-size: 12px; } .t { overflow: visible; } .t-bg { y: 40; fill: #fff;   } .th { fill: #005aa0;   } .tht { fill: #fff; font-size: 14px;  } .tf { fill: #323c46; overflow: visible; } .tf.pk { fill: #005aa0; font-weight: bold; } .tf.fk { font-weight: bold; } .ty { fill: #adb1b5; font-weight: normal; text-anchor: end; } .r { fill: transparent; stroke: #c3c3c3; stroke-width: 1; } .l { stroke: 1; } .i { fill: #c2c7ce; stroke: #c2c7ce; } .i.ix { fill: #afb3b6; stroke: #000; } .fa { fill: transparent; overflow: visible; } .fa .bg.hover { fill: #f7f7f7; } .c { cy: 12; r: 4; stroke: #d2d2dc; fill: #d2d2dc; } .hr { fill: transparent; stroke: #323c46; stroke-opacity: 0.035; stroke-width: 13; } .dc { stroke: #fa5a3c; fill: #fa5a3c; } .x { stroke: white; stroke-width: 1; } .hl .th { fill: #1b9bff; } .hl .tht {  } .fhl .bg { fill: #e7f4ff; } .fhls .bg {  } .r.hl { stroke: #1b9bff; } .dim { opacity: 0.25; }</style><g class="drawing-wrapper" transform="translate(-60, -10) scale(1,1)"><g class="rs"><path d="M 439.04 432 m -1, 0 a 1,1 0 1,0 2,0 a 1,1 0 1,0 -2,0 M 439.04 432 m -0.5, 0 a 0.5,0.5 0 1,0 1,0 a 0.5,0.5 0 1,0 -1,0  M439.04 432 L439.04 432 451.04 432 M 439.04 438 m -1, 0 a 1,1 0 1,0 2,0 a 1,1 0 1,0 -2,0 M 439.04 438 m -0.5, 0 a 0.5,0.5 0 1,0 1,0 a 0.5,0.5 0 1,0 -1,0  M439.04 438 L439.04 438 446.04 432 439.04 426 M 439.04 426 m -1, 0 a 1,1 0 1,0 2,0 a 1,1 0 1,0 -2,0 M 439.04 426 m -0.5, 0 a 0.5,0.5 0 1,0 1,0 a 0.5,0.5 0 1,0 -1,0  M451.04 432 Q 492.53 432, 534.02 348 T 617 264 M 629 264 m -1, 0 a 1,1 0 1,0 2,0 a 1,1 0 1,0 -2,0 M 629 264 m -0.5, 0 a 0.5,0.5 0 1,0 1,0 a 0.5,0.5 0 1,0 -1,0  M629 264 L629 264 617 264 M623 270 L623 270 623 258" id="h1578466457" class="r"></path><path d="M 439.04 457 m -1, 0 a 1,1 0 1,0 2,0 a 1,1 0 1,0 -2,0 M 439.04 457 m -0.5, 0 a 0.5,0.5 0 1,0 1,0 a 0.5,0.5 0 1,0 -1,0  M439.04 457 L439.04 457 451.04 457 M 439.04 463 m -1, 0 a 1,1 0 1,0 2,0 a 1,1 0 1,0 -2,0 M 439.04 463 m -0.5, 0 a 0.5,0.5 0 1,0 1,0 a 0.5,0.5 0 1,0 -1,0  M439.04 463 L439.04 463 446.04 457 439.04 451 M 439.04 451 m -1, 0 a 1,1 0 1,0 2,0 a 1,1 0 1,0 -2,0 M 439.04 451 m -0.5, 0 a 0.5,0.5 0 1,0 1,0 a 0.5,0.5 0 1,0 -1,0  M451.04 457 Q 484.78 457, 518.52 487.5 T 586 518 M 598 518 m -1, 0 a 1,1 0 1,0 2,0 a 1,1 0 1,0 -2,0 M 598 518 m -0.5, 0 a 0.5,0.5 0 1,0 1,0 a 0.5,0.5 0 1,0 -1,0  M598 518 L598 518 586 518 M592 524 L592 524 592 512" id="h1607168654" class="r"></path><path d="M 204.05 430 m -1, 0 a 1,1 0 1,0 2,0 a 1,1 0 1,0 -2,0 M 204.05 430 m -0.5, 0 a 0.5,0.5 0 1,0 1,0 a 0.5,0.5 0 1,0 -1,0  M204.05 430 L204.05 430 216.05 430 M 204.05 436 m -1, 0 a 1,1 0 1,0 2,0 a 1,1 0 1,0 -2,0 M 204.05 436 m -0.5, 0 a 0.5,0.5 0 1,0 1,0 a 0.5,0.5 0 1,0 -1,0  M204.05 436 L204.05 436 211.05 430 204.05 424 M 204.05 424 m -1, 0 a 1,1 0 1,0 2,0 a 1,1 0 1,0 -2,0 M 204.05 424 m -0.5, 0 a 0.5,0.5 0 1,0 1,0 a 0.5,0.5 0 1,0 -1,0  M216.05 430 Q 238.29 430, 260.52 443.5 T 305 457 M 317 457 m -1, 0 a 1,1 0 1,0 2,0 a 1,1 0 1,0 -2,0 M 317 457 m -0.5, 0 a 0.5,0.5 0 1,0 1,0 a 0.5,0.5 0 1,0 -1,0  M317 457 L317 457 305 457 M311 463 L311 463 311 451" id="h3335357949" class="r"></path><path d="M 91 116 m -1, 0 a 1,1 0 1,0 2,0 a 1,1 0 1,0 -2,0 M 91 116 m -0.5, 0 a 0.5,0.5 0 1,0 1,0 a 0.5,0.5 0 1,0 -1,0  M91 116 L91 116 79 116 M 91 122 m -1, 0 a 1,1 0 1,0 2,0 a 1,1 0 1,0 -2,0 M 91 122 m -0.5, 0 a 0.5,0.5 0 1,0 1,0 a 0.5,0.5 0 1,0 -1,0  M91 122 L91 122 84 116 91 110 M 91 110 m -1, 0 a 1,1 0 1,0 2,0 a 1,1 0 1,0 -2,0 M 91 110 m -0.5, 0 a 0.5,0.5 0 1,0 1,0 a 0.5,0.5 0 1,0 -1,0  M79 116 C 14.6 116, 20 455, 70 455 M 82 455 m -1, 0 a 1,1 0 1,0 2,0 a 1,1 0 1,0 -2,0 M 82 455 m -0.5, 0 a 0.5,0.5 0 1,0 1,0 a 0.5,0.5 0 1,0 -1,0  M82 455 L82 455 70 455 M76 461 L76 461 76 449" id="h1915938444" class="r"></path><path d="M 271.93 141 m -1, 0 a 1,1 0 1,0 2,0 a 1,1 0 1,0 -2,0 M 271.93 141 m -0.5, 0 a 0.5,0.5 0 1,0 1,0 a 0.5,0.5 0 1,0 -1,0  M271.93 141 L271.93 141 283.93 141 M 271.93 147 m -1, 0 a 1,1 0 1,0 2,0 a 1,1 0 1,0 -2,0 M 271.93 147 m -0.5, 0 a 0.5,0.5 0 1,0 1,0 a 0.5,0.5 0 1,0 -1,0  M271.93 147 L271.93 147 278.93 141 271.93 135 M 271.93 135 m -1, 0 a 1,1 0 1,0 2,0 a 1,1 0 1,0 -2,0 M 271.93 135 m -0.5, 0 a 0.5,0.5 0 1,0 1,0 a 0.5,0.5 0 1,0 -1,0  M283.93 141 Q 325.2 141, 366.47 131.5 T 449 122 M 461 122 m -1, 0 a 1,1 0 1,0 2,0 a 1,1 0 1,0 -2,0 M 461 122 m -0.5, 0 a 0.5,0.5 0 1,0 1,0 a 0.5,0.5 0 1,0 -1,0  M461 122 L461 122 449 122 M455 128 L455 128 455 116" id="h1479571991" class="r"></path></g><g class="hrs"></g><g class="ts"><svg width="184.96" height="100" x="598" y="461" id="h475896179" class="t"><rect height="40" width="184.96" class="th"></rect><text x="13" y="25" class="tht">departments</text><rect height="60" width="184.96" class="t-bg"></rect><text x="13" y="61" class="tf fk">dept_no<tspan x="171.96" class="ty">int</tspan></text><text x="13" y="86" class="tf">dept_name<tspan x="171.96" class="ty">CHARVAR(30)</tspan></text></svg><svg width="122.04" height="100" x="317" y="375" id="h1090417462" class="t"><rect height="40" width="122.04" class="th"></rect><text x="13" y="25" class="tht">dept_emp</text><rect height="60" width="122.04" class="t-bg"></rect><text x="13" y="61" class="tf pk">emp_no<tspan x="109.04" class="ty">int</tspan></text><path d="M7,14A2,2 0 0,1 5,12A2,2 0 0,1 7,10A2,2 0 0,1 9,12A2,2 0 0,1 7,14M12.65,10C11.83,7.67 9.61,6 7, 6A6, 6 0 0, 0 1, 12A6, 6 0 0, 0 7, 18C9.61, 18 11.83, 16.33 12.65, 14H17V18H21V14H23V10H12.65Z" class="i pk" transform="translate(76.366171875, 48) scale(0.65)"></path><text x="13" y="86" class="tf fk">dept_no<tspan x="109.04" class="ty">int</tspan></text></svg><svg width="122.05" height="100" x="82" y="373" id="h1676682957" class="t"><rect height="40" width="122.05" class="th"></rect><text x="13" y="25" class="tht">dept_manager</text><rect height="60" width="122.05" class="t-bg"></rect><text x="13" y="61" class="tf pk">dept_no<tspan x="109.05" class="ty">int</tspan></text><path d="M7,14A2,2 0 0,1 5,12A2,2 0 0,1 7,10A2,2 0 0,1 9,12A2,2 0 0,1 7,14M12.65,10C11.83,7.67 9.61,6 7, 6A6, 6 0 0, 0 1, 12A6, 6 0 0, 0 7, 18C9.61, 18 11.83, 16.33 12.65, 14H17V18H21V14H23V10H12.65Z" class="i pk" transform="translate(76.376171875, 48) scale(0.65)"></path><text x="13" y="86" class="tf fk">emp_no<tspan x="109.05" class="ty">int</tspan></text></svg><svg width="180.93" height="225" x="91" y="59" id="h1639608377" class="t"><rect height="40" width="180.93" class="th"></rect><text x="13" y="25" class="tht">employees</text><rect height="185" width="180.93" class="t-bg"></rect><text x="13" y="61" class="tf pk">emp_no<tspan x="167.93" class="ty">int</tspan></text><path d="M7,14A2,2 0 0,1 5,12A2,2 0 0,1 7,10A2,2 0 0,1 9,12A2,2 0 0,1 7,14M12.65,10C11.83,7.67 9.61,6 7, 6A6, 6 0 0, 0 1, 12A6, 6 0 0, 0 7, 18C9.61, 18 11.83, 16.33 12.65, 14H17V18H21V14H23V10H12.65Z" class="i pk" transform="translate(135.256171875, 48) scale(0.65)"></path><text x="13" y="86" class="tf fk">emp_title<tspan x="167.93" class="ty">CHARVAR(30)</tspan></text><text x="13" y="111" class="tf">birth_date<tspan x="167.93" class="ty">date</tspan></text><text x="13" y="136" class="tf">first_name<tspan x="167.93" class="ty">CHARVAR(30)</tspan></text><text x="13" y="161" class="tf">last_name<tspan x="167.93" class="ty">CHARVAR(30)</tspan></text><text x="13" y="186" class="tf">sex<tspan x="167.93" class="ty">CHARVAR(1)</tspan></text><text x="13" y="211" class="tf">hire_date<tspan x="167.93" class="ty">date</tspan></text></svg><svg width="122.04" height="100" x="629" y="207" id="h2472833127" class="t"><rect height="40" width="122.04" class="th"></rect><text x="13" y="25" class="tht">salaries</text><rect height="60" width="122.04" class="t-bg"></rect><text x="13" y="61" class="tf pk">emp_no<tspan x="109.04" class="ty">int</tspan></text><path d="M7,14A2,2 0 0,1 5,12A2,2 0 0,1 7,10A2,2 0 0,1 9,12A2,2 0 0,1 7,14M12.65,10C11.83,7.67 9.61,6 7, 6A6, 6 0 0, 0 1, 12A6, 6 0 0, 0 7, 18C9.61, 18 11.83, 16.33 12.65, 14H17V18H21V14H23V10H12.65Z" class="i pk" transform="translate(76.366171875, 48) scale(0.65)"></path><text x="13" y="86" class="tf">salary<tspan x="109.04" class="ty">int</tspan></text></svg><svg width="173.6" height="100" x="461" y="40" id="h1006881043" class="t"><rect height="40" width="173.6" class="th"></rect><text x="13" y="25" class="tht">title</text><rect height="60" width="173.6" class="t-bg"></rect><text x="13" y="61" class="tf">title_id<tspan x="160.6" class="ty">int</tspan></text><text x="13" y="86" class="tf fk">emp_title<tspan x="160.6" class="ty">CHARVAR(30)</tspan></text></svg></g></g></svg>